<svg xmlns="http://www.w3.org/2000/svg" width="400" height="400" enable-background="new 0 0 400 400" viewBox="0 0 400 400"><path fill="#FF6666" d="M132.01,258.632C1.361,371.296-47.667,113.619,115.228,170.433
				c-162.895-56.813,35.745-228.109,67.992-58.63c-32.246-169.477,215.419-83.099,84.771,29.566
				c130.648-112.665,179.676,145.01,16.781,88.196c162.895,56.813-35.745,228.107-67.99,58.632
				C249.026,457.673,1.361,371.296,132.01,258.632z"/><path fill="#FF9999" d="M284.809,229.462l-82.221-29.92l0.066-0.055l-0.068-0.023l65.404-58.095
				C398.639,28.705,150.974-57.674,183.22,111.803l15.092,86.183l-0.078-0.027l0.019,0.082l-83.12-27.322
				c-163.082-56.273-113.201,201.236,17.072,88.14l66.895-56.374l0.013,0.068l0.061-0.055l17.717,85.682
				C249.34,457.615,447.771,286.078,284.809,229.462z"/><circle cx="200.129" cy="200.044" r="45.321" fill="#FFBE55"/></svg>
